<svg width="146" height="80" viewBox="0 0 146 80" fill="none" xmlns="http://www.w3.org/2000/svg">
<path d="M139.006 59.8602C138.607 60.4127 138.223 60.9766 137.808 61.5155C137.055 62.4909 136.288 63.4557 135.339 64.2553C135.153 64.4114 135.179 64.4629 135.421 64.5668C136.018 64.8214 136.631 65.0495 137.197 65.361C138.887 66.291 140.255 67.5733 141.293 69.2044C142.562 71.1984 143.228 73.3417 142.928 75.7246C142.805 76.7023 142.448 77.5981 141.807 78.3462C141.008 79.2791 139.963 79.7968 138.745 79.9461C137.973 80.0408 137.184 80.0446 136.481 79.6725C135.043 78.9123 134.32 77.658 134.166 76.0694C134.106 75.4525 134.134 74.828 134.094 74.2088C134.066 73.7662 134.021 73.3205 133.931 72.8878C133.7 71.7827 133.294 70.7399 132.743 69.7531C132.234 68.8428 131.652 67.9887 130.885 67.2702C130.698 67.0951 130.507 67.0352 130.254 67.1368C128.447 67.8606 126.574 68.3563 124.664 68.7216C122.871 69.0642 121.061 69.2309 119.24 69.2726C117.539 69.3112 115.838 69.243 114.16 68.9542C112.844 68.7284 111.514 68.5177 110.239 68.1365C108.938 67.7477 107.677 67.2027 106.434 66.6457C105.032 66.0174 103.775 65.139 102.588 64.1651C101.419 63.2063 100.434 62.0755 99.5133 60.8856C99.4594 60.8159 99.4321 60.7242 99.3926 60.6431C105.556 64.2628 112.189 65.953 119.3 65.8082C126.413 65.6634 132.977 63.7232 138.912 59.7412C138.944 59.7806 138.975 59.82 139.006 59.8602Z" fill="#EB1400"/>
<path d="M45.1642 21.5356C44.5651 19.9546 43.8408 18.7693 41.9328 18.7337C41.1712 18.7193 40.2608 18.2153 39.7043 17.6529C38.737 16.6744 37.7522 16.5547 36.4987 16.8435C35.7963 17.0049 34.9672 17.017 34.2854 16.8056C30.688 15.6915 27.0997 16.4372 23.5129 16.7601C21.8789 16.9071 20.3239 16.8101 18.9687 15.8059C17.5374 14.7463 16.848 13.3109 17.173 11.5268C17.5314 9.557 18.7242 8.19581 20.6239 7.61374C21.5008 7.34468 22.0262 6.94906 22.4879 6.15024C24.6898 2.34406 27.9933 1.08973 32.2323 2.2531C32.6962 2.38043 33.3978 2.24098 33.7888 1.95374C39.6291 -2.33826 48.303 0.801729 50.1192 7.85703C50.2619 8.41106 50.8359 8.8999 51.3014 9.31751C52.7204 10.5885 54.4417 11.6132 55.5738 13.0934C57.4682 15.5725 57.2282 18.9792 55.4151 21.2628C53.3658 23.8442 50.7547 24.4831 47.4412 23.3053C47.029 23.1583 46.373 23.2674 46.0009 23.5153C44.9296 24.2262 43.9873 25.1341 42.9046 25.8246C42.5273 26.0648 41.7156 26.1217 41.3937 25.8784C36.1745 21.9305 30.2195 21.0043 23.8971 21.4955C23.1659 21.5523 22.4332 21.5849 21.6906 21.6296C21.3497 20.2199 21.0392 18.9322 20.7279 17.6453C20.8213 17.5506 20.9154 17.4558 21.0088 17.3611C21.5092 17.8697 22.1196 18.3108 22.4841 18.9027C23.0095 19.7561 23.642 19.888 24.5835 19.7962C29.9249 19.2771 35.1008 19.794 39.8516 22.5504C42.5318 24.1049 42.9798 24.0397 45.1642 21.5356ZM21.2001 9.46226C19.5905 10.0655 18.753 11.2964 19.0066 12.6864C19.2503 14.0195 20.5669 15.0442 22.2533 14.9578C24.5182 14.8418 26.7755 14.5569 28.9994 14.3484C28.868 13.4352 28.745 12.5825 28.5643 11.3305C33.9741 16.2478 36.6338 16.2781 40.9988 11.767C41.8143 13.2791 40.7916 14.3916 40.1682 15.6331C42.6229 17.7787 45.0511 17.3884 47.6379 15.746C47.3479 16.6078 46.8847 17.258 46.5286 17.9621C46.3175 18.3797 46.0503 18.9739 46.1953 19.3339C47.3327 22.167 50.8025 22.9552 53.113 20.9634C55.8691 18.5881 55.5335 14.5645 52.3438 12.1399C51.2224 11.2873 50.0683 10.1959 48.6781 11.8049C48.568 11.9323 48.2696 11.8982 48.0077 11.9482C48.8725 7.6198 47.3866 4.63898 43.5044 2.71846C39.4704 0.722903 36.6946 1.6195 32.3941 6.34123C32.2946 6.15403 32.1632 5.99638 32.123 5.81827C31.6887 3.91973 31.1921 3.55063 29.1846 3.66432C26.3108 3.82726 23.9487 5.9979 23.0733 9.31675C22.866 10.1019 22.7468 10.9106 22.5873 11.7087C22.4757 11.7307 22.3641 11.7519 22.2525 11.7739C21.9017 11.0031 21.5509 10.2308 21.2001 9.46226Z" fill="#FF9924"/>
<path d="M16.7183 61.957V68H15.5769V61.957H16.7183ZM19.1545 64.5676V65.4683H16.4194V64.5676H19.1545ZM19.4741 61.957V62.8577H16.4194V61.957H19.4741ZM22.4998 67.0454V64.9744C22.4998 64.8222 22.4735 64.6908 22.4209 64.5801C22.3683 64.4694 22.2881 64.3836 22.1802 64.3228C22.0723 64.2619 21.9353 64.2314 21.7693 64.2314C21.6226 64.2314 21.494 64.2563 21.3833 64.3062C21.2754 64.356 21.1924 64.4265 21.1343 64.5178C21.0762 64.6064 21.0471 64.7087 21.0471 64.825H19.9473C19.9473 64.6396 19.9915 64.4639 20.0801 64.2979C20.1686 64.1291 20.2945 63.9797 20.4578 63.8496C20.6238 63.7168 20.8216 63.613 21.0513 63.5383C21.2837 63.4636 21.5438 63.4263 21.8315 63.4263C22.1719 63.4263 22.4749 63.4844 22.7405 63.6006C23.0089 63.714 23.2192 63.8856 23.3713 64.1152C23.5263 64.3449 23.6038 64.634 23.6038 64.9827V66.9417C23.6038 67.1658 23.6176 67.3581 23.6453 67.5186C23.6757 67.6763 23.72 67.8132 23.7781 67.9294V68H22.6616C22.609 67.8866 22.5689 67.7427 22.5413 67.5684C22.5136 67.3913 22.4998 67.217 22.4998 67.0454ZM22.6533 65.2649L22.6616 65.9165H21.9685C21.797 65.9165 21.6462 65.9345 21.5161 65.9705C21.3861 66.0037 21.2795 66.0535 21.1965 66.1199C21.1135 66.1835 21.0513 66.261 21.0098 66.3523C20.9683 66.4408 20.9475 66.5418 20.9475 66.6553C20.9475 66.766 20.9724 66.8656 21.0222 66.9541C21.0748 67.0426 21.1495 67.1132 21.2463 67.1658C21.3459 67.2156 21.4622 67.2405 21.595 67.2405C21.7887 67.2405 21.9574 67.2017 22.1013 67.1243C22.2452 67.044 22.3573 66.9472 22.4375 66.8337C22.5177 66.7203 22.5606 66.6124 22.5662 66.51L22.8816 66.9832C22.8429 67.0966 22.7847 67.217 22.7073 67.3442C22.6298 67.4715 22.5302 67.5905 22.4084 67.7012C22.2867 67.8118 22.1401 67.9032 21.9685 67.9751C21.797 68.047 21.5977 68.083 21.3708 68.083C21.0803 68.083 20.8202 68.0249 20.5906 67.9087C20.3609 67.7925 20.1797 67.6334 20.0469 67.4314C19.9141 67.2294 19.8477 66.9998 19.8477 66.7424C19.8477 66.5045 19.8919 66.2942 19.9805 66.1116C20.069 65.929 20.2004 65.7754 20.3748 65.6509C20.5491 65.5236 20.7649 65.4281 21.0222 65.3645C21.2823 65.2981 21.5798 65.2649 21.9146 65.2649H22.6533ZM27.061 66.7715C27.061 66.6774 27.0361 66.593 26.9863 66.5183C26.9365 66.4436 26.8424 66.3758 26.7041 66.3149C26.5685 66.2513 26.3693 66.1918 26.1064 66.1365C25.874 66.0867 25.6596 66.0244 25.4631 65.9497C25.2667 65.875 25.0979 65.7851 24.9568 65.6799C24.8157 65.572 24.705 65.4461 24.6248 65.3022C24.5473 65.1556 24.5085 64.9868 24.5085 64.7959C24.5085 64.6105 24.5487 64.4362 24.6289 64.2729C24.7091 64.1069 24.8254 63.9617 24.9775 63.8372C25.1297 63.7099 25.3151 63.6103 25.5337 63.5383C25.7523 63.4636 25.9985 63.4263 26.2725 63.4263C26.6543 63.4263 26.9822 63.4885 27.2561 63.613C27.5328 63.7375 27.7445 63.9091 27.8911 64.1277C28.0378 64.3435 28.1111 64.587 28.1111 64.8582H27.0154C27.0154 64.7392 26.9877 64.6313 26.9324 64.5344C26.8798 64.4376 26.7982 64.3601 26.6875 64.302C26.5768 64.2411 26.4371 64.2107 26.2683 64.2107C26.1161 64.2107 25.9875 64.2356 25.8823 64.2854C25.7799 64.3352 25.7025 64.4002 25.6499 64.4805C25.5973 64.5607 25.571 64.6493 25.571 64.7461C25.571 64.818 25.5849 64.8831 25.6125 64.9412C25.643 64.9965 25.6914 65.0477 25.7578 65.0947C25.8242 65.1418 25.9141 65.1847 26.0276 65.2234C26.1438 65.2621 26.2863 65.2995 26.4551 65.3354C26.7899 65.4019 27.0818 65.4904 27.3308 65.6011C27.5826 65.709 27.7791 65.8529 27.9202 66.0327C28.0613 66.2126 28.1318 66.4422 28.1318 66.7217C28.1318 66.9209 28.0889 67.1035 28.0032 67.2695C27.9174 67.4328 27.7929 67.5753 27.6296 67.697C27.4664 67.8188 27.2713 67.9142 27.0444 67.9834C26.8175 68.0498 26.5616 68.083 26.2766 68.083C25.8643 68.083 25.5157 68.0097 25.2307 67.863C24.9457 67.7136 24.7299 67.5255 24.5833 67.2986C24.4366 67.0689 24.3633 66.831 24.3633 66.5847H25.4133C25.4216 66.759 25.4687 66.8988 25.5544 67.0039C25.6402 67.109 25.7481 67.1851 25.8782 67.2322C26.011 67.2764 26.1507 67.2986 26.2974 67.2986C26.4634 67.2986 26.6031 67.2764 26.7166 67.2322C26.83 67.1851 26.9158 67.1229 26.9739 67.0454C27.032 66.9652 27.061 66.8739 27.061 66.7715ZM31.0911 63.5093V64.2979H28.5178V63.5093H31.0911ZM29.2068 62.4053H30.3066V66.7051C30.3066 66.8379 30.3246 66.9403 30.3606 67.0122C30.3966 67.0841 30.4505 67.1326 30.5225 67.1575C30.5944 67.1824 30.6802 67.1948 30.7798 67.1948C30.8517 67.1948 30.9181 67.1907 30.979 67.1824C31.0399 67.1741 31.0911 67.1658 31.1326 67.1575L31.1367 67.9792C31.0454 68.0097 30.9417 68.0346 30.8254 68.054C30.712 68.0733 30.5833 68.083 30.4395 68.083C30.1932 68.083 29.9774 68.0415 29.792 67.9585C29.6066 67.8727 29.4627 67.7358 29.3604 67.5476C29.258 67.3567 29.2068 67.1049 29.2068 66.7922V62.4053ZM35.1626 61.957V68H34.0212V61.957H35.1626ZM37.5989 64.5676V65.4683H34.8638V64.5676H37.5989ZM37.9185 61.957V62.8577H34.8638V61.957H37.9185ZM38.3252 65.8003V65.7131C38.3252 65.3839 38.3722 65.0809 38.4663 64.8042C38.5604 64.5247 38.6973 64.2826 38.8772 64.0779C39.057 63.8731 39.277 63.714 39.5371 63.6006C39.7972 63.4844 40.0933 63.4263 40.4253 63.4263C40.7629 63.4263 41.0617 63.4844 41.3218 63.6006C41.5846 63.714 41.806 63.8731 41.9858 64.0779C42.1657 64.2826 42.3027 64.5247 42.3967 64.8042C42.4908 65.0809 42.5378 65.3839 42.5378 65.7131V65.8003C42.5378 66.1268 42.4908 66.4298 42.3967 66.7092C42.3027 66.9859 42.1657 67.228 41.9858 67.4355C41.806 67.6403 41.586 67.7994 41.3259 67.9128C41.0658 68.0263 40.7684 68.083 40.4336 68.083C40.1016 68.083 39.8041 68.0263 39.5413 67.9128C39.2784 67.7994 39.057 67.6403 38.8772 67.4355C38.6973 67.228 38.5604 66.9859 38.4663 66.7092C38.3722 66.4298 38.3252 66.1268 38.3252 65.8003ZM39.4209 65.7131V65.8003C39.4209 65.9967 39.4403 66.1807 39.479 66.3523C39.5177 66.5238 39.5772 66.6746 39.6575 66.8047C39.7377 66.9347 39.8415 67.0371 39.9688 67.1118C40.0988 67.1838 40.2537 67.2197 40.4336 67.2197C40.6107 67.2197 40.7629 67.1838 40.8901 67.1118C41.0174 67.0371 41.1212 66.9347 41.2014 66.8047C41.2844 66.6746 41.3453 66.5238 41.384 66.3523C41.4228 66.1807 41.4421 65.9967 41.4421 65.8003V65.7131C41.4421 65.5194 41.4228 65.3382 41.384 65.1694C41.3453 64.9979 41.2844 64.8471 41.2014 64.717C41.1212 64.5842 41.016 64.4805 40.886 64.4058C40.7587 64.3283 40.6051 64.2896 40.4253 64.2896C40.2482 64.2896 40.096 64.3283 39.9688 64.4058C39.8415 64.4805 39.7377 64.5842 39.6575 64.717C39.5772 64.8471 39.5177 64.9979 39.479 65.1694C39.4403 65.3382 39.4209 65.5194 39.4209 65.7131ZM43.1396 65.8003V65.7131C43.1396 65.3839 43.1867 65.0809 43.2808 64.8042C43.3748 64.5247 43.5118 64.2826 43.6917 64.0779C43.8715 63.8731 44.0915 63.714 44.3516 63.6006C44.6117 63.4844 44.9077 63.4263 45.2397 63.4263C45.5773 63.4263 45.8761 63.4844 46.1362 63.6006C46.3991 63.714 46.6204 63.8731 46.8003 64.0779C46.9801 64.2826 47.1171 64.5247 47.2112 64.8042C47.3053 65.0809 47.3523 65.3839 47.3523 65.7131V65.8003C47.3523 66.1268 47.3053 66.4298 47.2112 66.7092C47.1171 66.9859 46.9801 67.228 46.8003 67.4355C46.6204 67.6403 46.4005 67.7994 46.1404 67.9128C45.8803 68.0263 45.5828 68.083 45.248 68.083C44.916 68.083 44.6186 68.0263 44.3557 67.9128C44.0929 67.7994 43.8715 67.6403 43.6917 67.4355C43.5118 67.228 43.3748 66.9859 43.2808 66.7092C43.1867 66.4298 43.1396 66.1268 43.1396 65.8003ZM44.2354 65.7131V65.8003C44.2354 65.9967 44.2547 66.1807 44.2935 66.3523C44.3322 66.5238 44.3917 66.6746 44.4719 66.8047C44.5522 66.9347 44.6559 67.0371 44.7832 67.1118C44.9132 67.1838 45.0682 67.2197 45.248 67.2197C45.4251 67.2197 45.5773 67.1838 45.7046 67.1118C45.8319 67.0371 45.9356 66.9347 46.0159 66.8047C46.0989 66.6746 46.1597 66.5238 46.1985 66.3523C46.2372 66.1807 46.2566 65.9967 46.2566 65.8003V65.7131C46.2566 65.5194 46.2372 65.3382 46.1985 65.1694C46.1597 64.9979 46.0989 64.8471 46.0159 64.717C45.9356 64.5842 45.8305 64.4805 45.7004 64.4058C45.5732 64.3283 45.4196 64.2896 45.2397 64.2896C45.0627 64.2896 44.9105 64.3283 44.7832 64.4058C44.6559 64.4805 44.5522 64.5842 44.4719 64.717C44.3917 64.8471 44.3322 64.9979 44.2935 65.1694C44.2547 65.3382 44.2354 65.5194 44.2354 65.7131ZM50.8428 67.0454V61.625H51.9468V68H50.9507L50.8428 67.0454ZM47.9583 65.8086V65.7214C47.9583 65.3783 47.997 65.0671 48.0745 64.7876C48.1547 64.5054 48.2709 64.2633 48.4231 64.0613C48.5753 63.8593 48.7593 63.703 48.9751 63.5923C49.1937 63.4816 49.4413 63.4263 49.718 63.4263C49.9864 63.4263 50.2202 63.4802 50.4194 63.5881C50.6214 63.696 50.793 63.8496 50.9341 64.0488C51.078 64.248 51.1928 64.4846 51.2786 64.7585C51.3643 65.0297 51.4266 65.3285 51.4653 65.655V65.8916C51.4266 66.2098 51.3643 66.5017 51.2786 66.7673C51.1928 67.033 51.078 67.2654 50.9341 67.4646C50.793 67.6611 50.6214 67.8132 50.4194 67.9211C50.2174 68.0291 49.9809 68.083 49.7097 68.083C49.4358 68.083 49.1895 68.0263 48.9709 67.9128C48.7551 67.7994 48.5711 67.6403 48.4189 67.4355C48.2695 67.2308 48.1547 66.9901 48.0745 66.7134C47.997 66.4367 47.9583 66.1351 47.9583 65.8086ZM49.0581 65.7214V65.8086C49.0581 66.0023 49.0747 66.1835 49.1079 66.3523C49.1411 66.5211 49.1951 66.6705 49.2698 66.8005C49.3445 66.9278 49.4399 67.0274 49.5562 67.0994C49.6751 67.1713 49.819 67.2073 49.9878 67.2073C50.2036 67.2073 50.3807 67.1602 50.519 67.0662C50.6602 66.9693 50.7694 66.8379 50.8469 66.6719C50.9244 66.5031 50.9742 66.3136 50.9963 66.1033V65.4517C50.9853 65.2856 50.9562 65.1321 50.9092 64.991C50.8649 64.8499 50.8013 64.7281 50.7183 64.6257C50.638 64.5234 50.5384 64.4431 50.4194 64.385C50.3005 64.3269 50.1593 64.2979 49.9961 64.2979C49.8273 64.2979 49.6834 64.3352 49.5645 64.4099C49.4455 64.4819 49.3486 64.5828 49.2739 64.7129C49.1992 64.8429 49.1439 64.9937 49.1079 65.1653C49.0747 65.3368 49.0581 65.5222 49.0581 65.7214ZM55.1384 61.957H57.334C57.7933 61.957 58.1876 62.0262 58.5168 62.1646C58.8461 62.3029 59.0993 62.5076 59.2764 62.7788C59.4535 63.05 59.542 63.3834 59.542 63.7791C59.542 64.0917 59.4867 64.3629 59.376 64.5925C59.2653 64.8222 59.109 65.0145 58.907 65.1694C58.7078 65.3244 58.4726 65.4461 58.2014 65.5347L57.8445 65.7173H55.9062L55.8979 64.8167H57.3464C57.5816 64.8167 57.7767 64.7751 57.9316 64.6921C58.0866 64.6091 58.2028 64.4943 58.2803 64.3477C58.3605 64.201 58.4006 64.0336 58.4006 63.8455C58.4006 63.6435 58.3619 63.4692 58.2844 63.3225C58.2069 63.1731 58.0894 63.0583 57.9316 62.978C57.7739 62.8978 57.5747 62.8577 57.334 62.8577H56.2798V68H55.1384V61.957ZM58.55 68L57.1514 65.2939L58.3591 65.2898L59.7744 67.9419V68H58.55ZM62.4763 68.083C62.136 68.083 61.8302 68.0277 61.5591 67.917C61.2879 67.8063 61.0569 67.6528 60.866 67.4563C60.6778 67.2571 60.5326 67.026 60.4302 66.7632C60.3306 66.4976 60.2808 66.2126 60.2808 65.9082V65.7422C60.2808 65.3963 60.3306 65.0823 60.4302 64.8C60.5298 64.5151 60.6709 64.2702 60.8535 64.0654C61.0361 63.8607 61.2547 63.703 61.5093 63.5923C61.7638 63.4816 62.0447 63.4263 62.3518 63.4263C62.67 63.4263 62.9508 63.4802 63.1943 63.5881C63.4378 63.6933 63.6412 63.8427 63.8044 64.0364C63.9677 64.2301 64.0908 64.4625 64.1738 64.7336C64.2568 65.002 64.2983 65.2995 64.2983 65.626V66.0867H60.7788V65.3313H63.2192V65.2483C63.2137 65.074 63.1805 64.9149 63.1196 64.771C63.0588 64.6243 62.9647 64.5081 62.8374 64.4224C62.7101 64.3338 62.5455 64.2896 62.3435 64.2896C62.1803 64.2896 62.0378 64.3255 61.916 64.3975C61.797 64.4666 61.6974 64.5662 61.6172 64.6963C61.5397 64.8236 61.4816 64.9757 61.4429 65.1528C61.4041 65.3299 61.3848 65.5264 61.3848 65.7422V65.9082C61.3848 66.0964 61.4097 66.2707 61.4595 66.4312C61.512 66.5916 61.5881 66.7314 61.6877 66.8503C61.7901 66.9666 61.9119 67.0579 62.053 67.1243C62.1969 67.1879 62.3601 67.2197 62.5427 67.2197C62.7724 67.2197 62.9799 67.1755 63.1653 67.0869C63.3534 66.9956 63.5167 66.8614 63.655 66.6843L64.207 67.2571C64.113 67.3954 63.9857 67.5282 63.8252 67.6555C63.6675 67.7828 63.4766 67.8866 63.2524 67.9668C63.0283 68.0443 62.7696 68.083 62.4763 68.083ZM67.5024 66.7715C67.5024 66.6774 67.4775 66.593 67.4277 66.5183C67.3779 66.4436 67.2839 66.3758 67.1455 66.3149C67.0099 66.2513 66.8107 66.1918 66.5479 66.1365C66.3154 66.0867 66.101 66.0244 65.9045 65.9497C65.7081 65.875 65.5393 65.7851 65.3982 65.6799C65.2571 65.572 65.1464 65.4461 65.0662 65.3022C64.9887 65.1556 64.95 64.9868 64.95 64.7959C64.95 64.6105 64.9901 64.4362 65.0703 64.2729C65.1506 64.1069 65.2668 63.9617 65.4189 63.8372C65.5711 63.7099 65.7565 63.6103 65.9751 63.5383C66.1937 63.4636 66.4399 63.4263 66.7139 63.4263C67.0957 63.4263 67.4236 63.4885 67.6975 63.613C67.9742 63.7375 68.1859 63.9091 68.3325 64.1277C68.4792 64.3435 68.5525 64.587 68.5525 64.8582H67.4568C67.4568 64.7392 67.4291 64.6313 67.3738 64.5344C67.3212 64.4376 67.2396 64.3601 67.1289 64.302C67.0182 64.2411 66.8785 64.2107 66.7097 64.2107C66.5575 64.2107 66.4289 64.2356 66.3237 64.2854C66.2214 64.3352 66.1439 64.4002 66.0913 64.4805C66.0387 64.5607 66.0125 64.6493 66.0125 64.7461C66.0125 64.818 66.0263 64.8831 66.054 64.9412C66.0844 64.9965 66.1328 65.0477 66.1992 65.0947C66.2656 65.1418 66.3556 65.1847 66.469 65.2234C66.5852 65.2621 66.7277 65.2995 66.8965 65.3354C67.2313 65.4019 67.5232 65.4904 67.7722 65.6011C68.024 65.709 68.2205 65.8529 68.3616 66.0327C68.5027 66.2126 68.5732 66.4422 68.5732 66.7217C68.5732 66.9209 68.5304 67.1035 68.4446 67.2695C68.3588 67.4328 68.2343 67.5753 68.071 67.697C67.9078 67.8188 67.7127 67.9142 67.4858 67.9834C67.259 68.0498 67.003 68.083 66.718 68.083C66.3057 68.083 65.9571 68.0097 65.6721 67.863C65.3871 67.7136 65.1713 67.5255 65.0247 67.2986C64.878 67.0689 64.8047 66.831 64.8047 66.5847H65.8547C65.863 66.759 65.9101 66.8988 65.9958 67.0039C66.0816 67.109 66.1895 67.1851 66.3196 67.2322C66.4524 67.2764 66.5921 67.2986 66.7388 67.2986C66.9048 67.2986 67.0445 67.2764 67.158 67.2322C67.2714 67.1851 67.3572 67.1229 67.4153 67.0454C67.4734 66.9652 67.5024 66.8739 67.5024 66.7715ZM71.5325 63.5093V64.2979H68.9592V63.5093H71.5325ZM69.6482 62.4053H70.748V66.7051C70.748 66.8379 70.766 66.9403 70.802 67.0122C70.838 67.0841 70.8919 67.1326 70.9639 67.1575C71.0358 67.1824 71.1216 67.1948 71.2212 67.1948C71.2931 67.1948 71.3595 67.1907 71.4204 67.1824C71.4813 67.1741 71.5325 67.1658 71.574 67.1575L71.5781 67.9792C71.4868 68.0097 71.3831 68.0346 71.2668 68.054C71.1534 68.0733 71.0247 68.083 70.8809 68.083C70.6346 68.083 70.4188 68.0415 70.2334 67.9585C70.048 67.8727 69.9041 67.7358 69.8018 67.5476C69.6994 67.3567 69.6482 67.1049 69.6482 66.7922V62.4053ZM74.7366 67.0454V64.9744C74.7366 64.8222 74.7103 64.6908 74.6577 64.5801C74.6051 64.4694 74.5249 64.3836 74.417 64.3228C74.3091 64.2619 74.1721 64.2314 74.0061 64.2314C73.8595 64.2314 73.7308 64.2563 73.6201 64.3062C73.5122 64.356 73.4292 64.4265 73.3711 64.5178C73.313 64.6064 73.2839 64.7087 73.2839 64.825H72.1841C72.1841 64.6396 72.2284 64.4639 72.3169 64.2979C72.4054 64.1291 72.5313 63.9797 72.6946 63.8496C72.8606 63.7168 73.0584 63.613 73.2881 63.5383C73.5205 63.4636 73.7806 63.4263 74.0684 63.4263C74.4087 63.4263 74.7117 63.4844 74.9773 63.6006C75.2457 63.714 75.456 63.8856 75.6082 64.1152C75.7631 64.3449 75.8406 64.634 75.8406 64.9827V66.9417C75.8406 67.1658 75.8544 67.3581 75.8821 67.5186C75.9125 67.6763 75.9568 67.8132 76.0149 67.9294V68H74.8984C74.8459 67.8866 74.8057 67.7427 74.7781 67.5684C74.7504 67.3913 74.7366 67.217 74.7366 67.0454ZM74.8901 65.2649L74.8984 65.9165H74.2053C74.0338 65.9165 73.883 65.9345 73.7529 65.9705C73.6229 66.0037 73.5164 66.0535 73.4333 66.1199C73.3503 66.1835 73.2881 66.261 73.2466 66.3523C73.2051 66.4408 73.1843 66.5418 73.1843 66.6553C73.1843 66.766 73.2092 66.8656 73.259 66.9541C73.3116 67.0426 73.3863 67.1132 73.4832 67.1658C73.5828 67.2156 73.699 67.2405 73.8318 67.2405C74.0255 67.2405 74.1943 67.2017 74.3381 67.1243C74.482 67.044 74.5941 66.9472 74.6743 66.8337C74.7546 66.7203 74.7974 66.6124 74.803 66.51L75.1184 66.9832C75.0797 67.0966 75.0216 67.217 74.9441 67.3442C74.8666 67.4715 74.767 67.5905 74.6453 67.7012C74.5235 67.8118 74.3769 67.9032 74.2053 67.9751C74.0338 68.047 73.8346 68.083 73.6077 68.083C73.3171 68.083 73.057 68.0249 72.8274 67.9087C72.5977 67.7925 72.4165 67.6334 72.2837 67.4314C72.1509 67.2294 72.0845 66.9998 72.0845 66.7424C72.0845 66.5045 72.1287 66.2942 72.2173 66.1116C72.3058 65.929 72.4373 65.7754 72.6116 65.6509C72.7859 65.5236 73.0017 65.4281 73.259 65.3645C73.5191 65.2981 73.8166 65.2649 74.1514 65.2649H74.8901ZM79.5012 66.9333V63.5093H80.6052V68H79.5676L79.5012 66.9333ZM79.6423 66.0037L79.9827 65.9954C79.9827 66.297 79.9495 66.575 79.8831 66.8296C79.8167 67.0841 79.7129 67.3055 79.5718 67.4937C79.4334 67.679 79.2577 67.8243 79.0447 67.9294C78.8316 68.0318 78.5798 68.083 78.2893 68.083C78.068 68.083 77.866 68.0526 77.6833 67.9917C77.5007 67.9281 77.343 67.8298 77.2102 67.697C77.0802 67.5614 76.9792 67.3885 76.9072 67.1782C76.8353 66.9652 76.7993 66.7092 76.7993 66.4104V63.5093H77.895V66.4187C77.895 66.5681 77.9116 66.6926 77.9448 66.7922C77.9808 66.8918 78.0292 66.9735 78.0901 67.0371C78.1537 67.098 78.2271 67.1423 78.3101 67.1699C78.3958 67.1948 78.4871 67.2073 78.584 67.2073C78.8496 67.2073 79.0585 67.1547 79.2107 67.0496C79.3656 66.9417 79.4763 66.7978 79.5427 66.6179C79.6091 66.4353 79.6423 66.2306 79.6423 66.0037ZM82.6721 64.4265V68H81.5764V63.5093H82.614L82.6721 64.4265ZM84.0376 63.4802L84.021 64.5012C83.9601 64.4902 83.891 64.4819 83.8135 64.4763C83.7388 64.4708 83.6682 64.468 83.6018 64.468C83.433 64.468 83.285 64.4915 83.1577 64.5386C83.0304 64.5828 82.9239 64.6479 82.8381 64.7336C82.7551 64.8194 82.6915 64.9246 82.6472 65.0491C82.6029 65.1708 82.578 65.3092 82.5725 65.4641L82.3359 65.4351C82.3359 65.1501 82.365 64.8858 82.4231 64.6423C82.4812 64.3988 82.5656 64.1858 82.6763 64.0032C82.7869 63.8206 82.9253 63.6794 83.0913 63.5798C83.2601 63.4775 83.4538 63.4263 83.6724 63.4263C83.7332 63.4263 83.7983 63.4318 83.8674 63.4429C83.9394 63.4512 83.9961 63.4636 84.0376 63.4802ZM86.9719 67.0454V64.9744C86.9719 64.8222 86.9456 64.6908 86.8931 64.5801C86.8405 64.4694 86.7603 64.3836 86.6523 64.3228C86.5444 64.2619 86.4075 64.2314 86.2415 64.2314C86.0948 64.2314 85.9661 64.2563 85.8555 64.3062C85.7476 64.356 85.6646 64.4265 85.6064 64.5178C85.5483 64.6064 85.5193 64.7087 85.5193 64.825H84.4194C84.4194 64.6396 84.4637 64.4639 84.5522 64.2979C84.6408 64.1291 84.7667 63.9797 84.9299 63.8496C85.0959 63.7168 85.2938 63.613 85.5234 63.5383C85.7559 63.4636 86.016 63.4263 86.3037 63.4263C86.644 63.4263 86.947 63.4844 87.2126 63.6006C87.481 63.714 87.6913 63.8856 87.8435 64.1152C87.9985 64.3449 88.0759 64.634 88.0759 64.9827V66.9417C88.0759 67.1658 88.0898 67.3581 88.1174 67.5186C88.1479 67.6763 88.1921 67.8132 88.2502 67.9294V68H87.1338C87.0812 67.8866 87.0411 67.7427 87.0134 67.5684C86.9858 67.3913 86.9719 67.217 86.9719 67.0454ZM87.1255 65.2649L87.1338 65.9165H86.4407C86.2691 65.9165 86.1183 65.9345 85.9883 65.9705C85.8582 66.0037 85.7517 66.0535 85.6687 66.1199C85.5857 66.1835 85.5234 66.261 85.4819 66.3523C85.4404 66.4408 85.4197 66.5418 85.4197 66.6553C85.4197 66.766 85.4446 66.8656 85.4944 66.9541C85.547 67.0426 85.6217 67.1132 85.7185 67.1658C85.8181 67.2156 85.9343 67.2405 86.0671 67.2405C86.2608 67.2405 86.4296 67.2017 86.5735 67.1243C86.7174 67.044 86.8294 66.9472 86.9097 66.8337C86.9899 66.7203 87.0328 66.6124 87.0383 66.51L87.3538 66.9832C87.315 67.0966 87.2569 67.217 87.1794 67.3442C87.102 67.4715 87.0024 67.5905 86.8806 67.7012C86.7589 67.8118 86.6122 67.9032 86.4407 67.9751C86.2691 68.047 86.0699 68.083 85.843 68.083C85.5525 68.083 85.2924 68.0249 85.0627 67.9087C84.8331 67.7925 84.6519 67.6334 84.519 67.4314C84.3862 67.2294 84.3198 66.9998 84.3198 66.7424C84.3198 66.5045 84.3641 66.2942 84.4526 66.1116C84.5412 65.929 84.6726 65.7754 84.8469 65.6509C85.0212 65.5236 85.2371 65.4281 85.4944 65.3645C85.7545 65.2981 86.0519 65.2649 86.3867 65.2649H87.1255ZM90.1387 64.468V68H89.043V63.5093H90.0723L90.1387 64.468ZM89.9644 65.5928H89.6406C89.6434 65.2663 89.6877 64.9702 89.7734 64.7046C89.8592 64.439 89.9796 64.2107 90.1345 64.0198C90.2922 63.8289 90.479 63.6822 90.6948 63.5798C90.9106 63.4775 91.1514 63.4263 91.417 63.4263C91.6328 63.4263 91.8279 63.4567 92.0022 63.5176C92.1765 63.5785 92.3259 63.6753 92.4504 63.8081C92.5777 63.9409 92.6746 64.1152 92.741 64.3311C92.8101 64.5441 92.8447 64.807 92.8447 65.1196V68H91.7407V65.1113C91.7407 64.9066 91.7103 64.7447 91.6494 64.6257C91.5913 64.5068 91.5055 64.4224 91.3921 64.3726C91.2814 64.3228 91.1444 64.2979 90.9812 64.2979C90.8124 64.2979 90.6644 64.3324 90.5371 64.4016C90.4126 64.468 90.3075 64.5607 90.2217 64.6797C90.1387 64.7987 90.075 64.9356 90.0308 65.0906C89.9865 65.2455 89.9644 65.4129 89.9644 65.5928ZM95.9368 63.5093V64.2979H93.3635V63.5093H95.9368ZM94.0525 62.4053H95.1523V66.7051C95.1523 66.8379 95.1703 66.9403 95.2063 67.0122C95.2423 67.0841 95.2962 67.1326 95.3682 67.1575C95.4401 67.1824 95.5259 67.1948 95.6255 67.1948C95.6974 67.1948 95.7638 67.1907 95.8247 67.1824C95.8856 67.1741 95.9368 67.1658 95.9783 67.1575L95.9824 67.9792C95.8911 68.0097 95.7874 68.0346 95.6711 68.054C95.5577 68.0733 95.429 68.083 95.2852 68.083C95.0389 68.083 94.8231 68.0415 94.6377 67.9585C94.4523 67.8727 94.3084 67.7358 94.2061 67.5476C94.1037 67.3567 94.0525 67.1049 94.0525 66.7922V62.4053Z" fill="#121212"/>
<path d="M18.7818 45.4913H14.1199C13.5983 45.4913 13.101 45.4238 12.7692 44.9714C12.4404 44.5234 12.3295 44.03 12.5892 43.501C12.842 42.9849 13.2672 42.734 13.8306 42.681C14.1062 42.6552 14.3985 42.6537 14.6491 42.5544C15.1548 42.3543 15.4866 41.7601 15.438 41.2538C15.3879 40.7294 14.9536 40.1958 14.3507 40.1291C13.5413 40.0389 12.719 40.0564 11.9013 40.0473C10.9887 40.0374 10.076 40.0609 9.16338 40.0495C8.47852 40.0412 7.88781 39.3902 7.88401 38.6739C7.88022 37.9683 8.45271 37.3272 9.17098 37.3097C10.3456 37.2809 11.5209 37.3006 12.6955 37.2908C12.9362 37.2885 13.1837 37.2794 13.4153 37.2203C14.1351 37.0369 14.5208 36.5109 14.4563 35.8432C14.3932 35.1891 13.8299 34.6654 13.1207 34.6548C11.8717 34.6366 10.6219 34.6586 9.37218 34.6412C8.4322 34.6275 7.8825 34.003 7.96146 33.0844C8.02296 32.3682 8.6114 31.8559 9.4352 31.8483C11.076 31.8331 12.7175 31.8354 14.3583 31.8392C14.8807 31.84 15.3188 31.6709 15.5997 31.2238C16.1585 30.3355 15.5511 29.2782 14.4669 29.2722C12.2665 29.2585 10.0654 29.2745 7.86503 29.2608C7.49755 29.2585 7.12019 29.2078 6.76485 29.1138C6.1916 28.9622 5.93042 28.5075 5.85525 27.961C5.77932 27.4138 6.08607 26.8234 6.57883 26.6256C6.93265 26.4839 7.33126 26.3944 7.71166 26.3906C9.931 26.3694 12.1503 26.38 14.3697 26.38C16.589 26.3793 18.8084 26.3755 18.7841 26.3808V45.4913H18.7818Z" fill="#121212"/>
<path d="M3.63011 34.6176C4.3947 34.6176 5.16005 34.6025 5.92387 34.6222C6.66796 34.6411 7.17667 35.2096 7.17667 35.9773C7.17667 36.6852 6.64062 37.3082 5.94816 37.318C4.38179 37.3408 2.81466 37.3408 1.24829 37.3188C0.503445 37.3082 -0.00602042 36.714 5.37323e-05 35.9493C0.00536862 35.1702 0.499652 34.6411 1.28094 34.6214C2.06299 34.6025 2.84655 34.6176 3.63011 34.6176Z" fill="#121212"/>
<path d="M3.43298 29.1873C3.84896 29.1873 4.26571 29.1759 4.68169 29.191C5.08705 29.2054 5.36336 29.6375 5.36336 30.221C5.36336 30.7591 5.07186 31.2328 4.69459 31.2404C3.84213 31.2571 2.98891 31.2578 2.13645 31.2412C1.73109 31.2328 1.45402 30.7811 1.45706 30.2006C1.46009 29.6087 1.72882 29.2062 2.15391 29.191C2.57976 29.1759 3.00637 29.1873 3.43298 29.1873Z" fill="#121212"/>
<path d="M4.92628 39.9935C5.39171 39.9935 5.85867 39.9753 6.32334 39.9972C7.09855 40.0344 7.60802 40.5581 7.63839 41.3152C7.66952 42.08 7.16233 42.7219 6.39091 42.7613C5.42512 42.8106 4.45249 42.8136 3.48746 42.7613C2.72971 42.7204 2.22176 42.0618 2.2491 41.3008C2.27491 40.574 2.82159 40.0314 3.58541 40.001C4.03186 39.9829 4.47907 39.998 4.92628 39.998C4.92628 39.9972 4.92628 39.9957 4.92628 39.9935Z" fill="#121212"/>
<path d="M29.8 57.95C24.2667 57.9167 20.1167 56.55 17.35 53.85C14.6167 51.15 13.25 46.7667 13.25 40.7C13.25 35.2 14.5833 30.8833 17.25 27.75C19.9167 24.5833 23.6833 23 28.55 23C31.55 23 34.1667 23.45 36.4 24.35C38.6333 25.25 40.35 26.5333 41.55 28.2C42.75 29.8667 43.35 31.8333 43.35 34.1C43.35 35.9 42.95 37.5 42.15 38.9C41.3833 40.3 40.2333 41.55 38.7 42.65C39.9333 42.85 41 43.5167 41.9 44.65C42.8333 45.7833 43.3 47.1 43.3 48.6C43.3 50.2 42.8667 51.7167 42 53.15C41.1667 54.55 39.7333 55.7 37.7 56.6C35.7 57.5 33.0667 57.95 29.8 57.95ZM26.35 39.3C26.95 39.6 27.7 39.75 28.6 39.75C29.6667 39.75 30.5833 39.5 31.35 39C32.15 38.4667 32.55 37.6833 32.55 36.65C32.55 35.65 32.15 34.9 31.35 34.4C30.5833 33.8667 29.65 33.6 28.55 33.6C27.6833 33.6 26.95 33.75 26.35 34.05C25.8833 34.25 25.5333 34.6 25.3 35.1C25.0667 35.6 24.95 36.1333 24.95 36.7C24.95 37.2667 25.0667 37.8 25.3 38.3C25.5333 38.7667 25.8833 39.1 26.35 39.3ZM26.35 51C26.9833 51.2667 27.7333 51.4 28.6 51.4C29.6667 51.4 30.5833 51.1833 31.35 50.75C32.15 50.2833 32.55 49.6 32.55 48.7C32.55 47.8333 32.15 47.1667 31.35 46.7C30.55 46.2333 29.6167 46 28.55 46C27.7167 46 26.9833 46.1333 26.35 46.4C25.8833 46.6 25.5333 46.9167 25.3 47.35C25.0667 47.75 24.95 48.2 24.95 48.7C24.95 49.2 25.0667 49.6667 25.3 50.1C25.5333 50.5 25.8833 50.8 26.35 51ZM53.8906 58C51.2906 58 49.1573 57.4167 47.4906 56.25C45.824 55.05 44.9906 53.3333 44.9906 51.1C44.9906 49.1667 45.8406 47.6333 47.5406 46.5C49.2406 45.3667 51.3573 44.8 53.8906 44.8C54.824 44.8 55.6906 44.8833 56.4906 45.05C57.324 45.1833 57.8906 45.35 58.1906 45.55C58.1906 44.7167 57.8406 44.0333 57.1406 43.5C56.4406 42.9333 55.374 42.65 53.9406 42.65C53.3073 42.65 52.7906 42.7 52.3906 42.8C51.9906 42.9 51.5573 43.05 51.0906 43.25C50.624 43.45 50.1906 43.6 49.7906 43.7C49.424 43.8 48.924 43.85 48.2906 43.85C47.224 43.85 46.3906 43.5833 45.7906 43.05C45.1906 42.4833 44.8906 41.6333 44.8906 40.5C44.8906 39.2 45.3573 38.1 46.2906 37.2C47.2573 36.3 48.4573 35.6333 49.8906 35.2C51.324 34.7333 52.7573 34.5 54.1906 34.5C57.024 34.5 59.3906 35.0333 61.2906 36.1C63.224 37.1333 64.6406 38.5167 65.5406 40.25C66.474 41.9833 66.9406 43.9 66.9406 46C66.9406 47.1333 66.8406 48.1833 66.6406 49.15C66.474 50.1167 66.2406 50.8667 65.9406 51.4C66.4073 51.8 66.7573 52.2667 66.9906 52.8C67.2573 53.3333 67.3906 53.8833 67.3906 54.45C67.3906 55.4167 67.0573 56.25 66.3906 56.95C65.7573 57.65 64.9073 58 63.8406 58C63.0406 58 62.3906 57.8833 61.8906 57.65C61.3906 57.4167 60.8573 57.05 60.2906 56.55C59.4573 57.05 58.5406 57.4167 57.5406 57.65C56.574 57.8833 55.3573 58 53.8906 58ZM54.8906 52.95C55.5906 52.95 56.1406 52.8 56.5406 52.5C56.974 52.2 57.1906 51.8333 57.1906 51.4C57.1906 50.9667 56.974 50.6 56.5406 50.3C56.1406 50 55.5906 49.85 54.8906 49.85C54.1906 49.85 53.624 50 53.1906 50.3C52.7906 50.6 52.5906 50.9667 52.5906 51.4C52.5906 51.8333 52.7906 52.2 53.1906 52.5C53.624 52.8 54.1906 52.95 54.8906 52.95ZM74.7523 58C72.619 58 71.1857 56.75 70.4523 54.25C69.7523 51.75 69.4023 48.3 69.4023 43.9C69.4023 41.9 69.4857 40.2333 69.6523 38.9C69.8523 37.5333 70.3023 36.3833 71.0023 35.45C71.7357 34.4833 72.8523 34 74.3523 34C75.2857 34 76.1023 34.2167 76.8023 34.65C77.5357 35.0833 78.0023 35.7 78.2023 36.5C78.9357 35.8333 79.8857 35.3333 81.0523 35C82.219 34.6667 83.469 34.5 84.8023 34.5C85.869 34.5 86.9523 34.7667 88.0523 35.3C89.1857 35.8333 90.119 36.5667 90.8523 37.5C91.619 38.4 92.0023 39.3833 92.0023 40.45C92.0023 41.5167 91.619 42.4667 90.8523 43.3C90.119 44.1 89.1357 44.5 87.9023 44.5C87.5023 44.5 87.119 44.45 86.7523 44.35C86.419 44.25 86.119 44.15 85.8523 44.05C85.1857 43.7833 84.6523 43.65 84.2523 43.65C82.9523 43.65 81.8023 44.1667 80.8023 45.2C79.8357 46.2 79.3523 47.5 79.3523 49.1C79.3523 50.8667 79.2857 52.3333 79.1523 53.5C79.019 54.6667 78.619 55.7167 77.9523 56.65C77.2857 57.55 76.219 58 74.7523 58ZM101.986 58C99.3863 58 97.253 57.4167 95.5863 56.25C93.9197 55.05 93.0863 53.3333 93.0863 51.1C93.0863 49.1667 93.9363 47.6333 95.6363 46.5C97.3363 45.3667 99.453 44.8 101.986 44.8C102.92 44.8 103.786 44.8833 104.586 45.05C105.42 45.1833 105.986 45.35 106.286 45.55C106.286 44.7167 105.936 44.0333 105.236 43.5C104.536 42.9333 103.47 42.65 102.036 42.65C101.403 42.65 100.886 42.7 100.486 42.8C100.086 42.9 99.653 43.05 99.1863 43.25C98.7197 43.45 98.2863 43.6 97.8863 43.7C97.5197 43.8 97.0197 43.85 96.3863 43.85C95.3197 43.85 94.4863 43.5833 93.8863 43.05C93.2863 42.4833 92.9863 41.6333 92.9863 40.5C92.9863 39.2 93.453 38.1 94.3863 37.2C95.353 36.3 96.553 35.6333 97.9863 35.2C99.4197 34.7333 100.853 34.5 102.286 34.5C105.12 34.5 107.486 35.0333 109.386 36.1C111.32 37.1333 112.736 38.5167 113.636 40.25C114.57 41.9833 115.036 43.9 115.036 46C115.036 47.1333 114.936 48.1833 114.736 49.15C114.57 50.1167 114.336 50.8667 114.036 51.4C114.503 51.8 114.853 52.2667 115.086 52.8C115.353 53.3333 115.486 53.8833 115.486 54.45C115.486 55.4167 115.153 56.25 114.486 56.95C113.853 57.65 113.003 58 111.936 58C111.136 58 110.486 57.8833 109.986 57.65C109.486 57.4167 108.953 57.05 108.386 56.55C107.553 57.05 106.636 57.4167 105.636 57.65C104.67 57.8833 103.453 58 101.986 58ZM102.986 52.95C103.686 52.95 104.236 52.8 104.636 52.5C105.07 52.2 105.286 51.8333 105.286 51.4C105.286 50.9667 105.07 50.6 104.636 50.3C104.236 50 103.686 49.85 102.986 49.85C102.286 49.85 101.72 50 101.286 50.3C100.886 50.6 100.686 50.9667 100.686 51.4C100.686 51.8333 100.886 52.2 101.286 52.5C101.72 52.8 102.286 52.95 102.986 52.95ZM132.336 58C126.27 58 122.353 56.15 120.586 52.45C118.853 48.7167 117.986 44.9333 117.986 41.1C117.986 38.2667 118.236 35.4667 118.736 32.7C119.27 29.9333 120.12 27.6167 121.286 25.75C122.453 23.8833 123.97 22.95 125.836 22.95C127.003 22.95 128.003 23.3167 128.836 24.05C129.67 24.7833 130.086 25.85 130.086 27.25C130.086 27.95 130.02 28.65 129.886 29.35C129.753 30.05 129.553 30.9167 129.286 31.95C129.22 32.15 129.086 32.65 128.886 33.45C128.72 34.25 128.603 35 128.536 35.7C130.003 34.9 131.67 34.5 133.536 34.5C135.403 34.5 137.136 34.9167 138.736 35.75C140.37 36.5833 141.686 37.8667 142.686 39.6C143.72 41.3 144.236 43.3833 144.236 45.85C144.236 47.95 143.753 49.9333 142.786 51.8C141.82 53.6333 140.42 55.1333 138.586 56.3C136.786 57.4333 134.703 58 132.336 58ZM132.036 50.1C132.936 50.1 133.72 49.7667 134.386 49.1C135.086 48.4 135.436 47.5833 135.436 46.65C135.436 45.7167 135.086 44.9 134.386 44.2C133.72 43.5 132.936 43.15 132.036 43.15C131.136 43.15 130.353 43.5 129.686 44.2C129.02 44.9 128.686 45.7167 128.686 46.65C128.686 47.5833 129.02 48.4 129.686 49.1C130.353 49.7667 131.136 50.1 132.036 50.1Z" fill="#121212"/>
</svg>
